<svg width="140" height="28" viewBox="0 0 140 28" fill="none" xmlns="http://www.w3.org/2000/svg">
<path d="M13.3449 2.73878C13.6129 2.1982 14.3871 2.1982 14.655 2.73878L17.6943 8.87044C17.8007 9.0851 18.0064 9.23389 18.2443 9.26831L25.0404 10.2516C25.6396 10.3383 25.8788 11.0714 25.4452 11.4922L20.5276 16.265C20.3554 16.4321 20.2768 16.6728 20.3175 16.9088L21.4784 23.6481C21.5807 24.2423 20.9544 24.6954 20.4185 24.4148L14.3399 21.233C14.1271 21.1216 13.8729 21.1216 13.6601 21.233L7.58146 24.4148C7.04556 24.6954 6.41922 24.2423 6.52157 23.6481L7.68248 16.9088C7.72312 16.6728 7.64456 16.4321 7.47239 16.265L2.55471 11.4922C2.12115 11.0714 2.3604 10.3383 2.95955 10.2516L9.75562 9.26831C9.99355 9.23389 10.1992 9.0851 10.3056 8.87044L13.3449 2.73878Z" fill="#FFB219"/>
<path d="M41.3449 2.73878C41.6129 2.1982 42.3871 2.1982 42.655 2.73878L45.6943 8.87044C45.8007 9.0851 46.0064 9.23389 46.2443 9.26831L53.0404 10.2516C53.6396 10.3383 53.8788 11.0714 53.4452 11.4922L48.5276 16.265C48.3554 16.4321 48.2768 16.6728 48.3175 16.9088L49.4784 23.6481C49.5807 24.2423 48.9544 24.6954 48.4185 24.4148L42.3399 21.233C42.1271 21.1216 41.8729 21.1216 41.6601 21.233L35.5815 24.4148C35.0456 24.6954 34.4192 24.2423 34.5216 23.6481L35.6825 16.9088C35.7231 16.6728 35.6446 16.4321 35.4724 16.265L30.5547 11.4922C30.1212 11.0714 30.3604 10.3383 30.9596 10.2516L37.7556 9.26831C37.9936 9.23389 38.1992 9.0851 38.3056 8.87044L41.3449 2.73878Z" fill="#FFB219"/>
<path d="M69.3449 2.73878C69.6129 2.1982 70.3871 2.1982 70.655 2.73878L73.6943 8.87044C73.8007 9.0851 74.0064 9.23389 74.2443 9.26831L81.0404 10.2516C81.6396 10.3383 81.8788 11.0714 81.4452 11.4922L76.5276 16.265C76.3554 16.4321 76.2768 16.6728 76.3175 16.9088L77.4784 23.6481C77.5807 24.2423 76.9544 24.6954 76.4185 24.4148L70.3399 21.233C70.1271 21.1216 69.8729 21.1216 69.6601 21.233L63.5815 24.4148C63.0456 24.6954 62.4192 24.2423 62.5216 23.6481L63.6825 16.9088C63.7231 16.6728 63.6446 16.4321 63.4724 16.265L58.5547 11.4922C58.1212 11.0714 58.3604 10.3383 58.9596 10.2516L65.7556 9.26831C65.9936 9.23389 66.1992 9.0851 66.3056 8.87044L69.3449 2.73878Z" fill="#FFB219"/>
<path d="M97.3449 2.73878C97.6129 2.1982 98.3871 2.1982 98.655 2.73878L101.694 8.87044C101.801 9.0851 102.006 9.23389 102.244 9.26831L109.04 10.2516C109.64 10.3383 109.879 11.0714 109.445 11.4922L104.528 16.265C104.355 16.4321 104.277 16.6728 104.317 16.9088L105.478 23.6481C105.581 24.2423 104.954 24.6954 104.418 24.4148L98.3399 21.233C98.1271 21.1216 97.8729 21.1216 97.6601 21.233L91.5815 24.4148C91.0456 24.6954 90.4192 24.2423 90.5216 23.6481L91.6825 16.9088C91.7231 16.6728 91.6446 16.4321 91.4724 16.265L86.5547 11.4922C86.1212 11.0714 86.3604 10.3383 86.9596 10.2516L93.7556 9.26831C93.9936 9.23389 94.1992 9.0851 94.3056 8.87044L97.3449 2.73878Z" fill="#CED2DA"/>
<path d="M125.345 2.73878C125.613 2.1982 126.387 2.1982 126.655 2.73878L129.694 8.87044C129.801 9.0851 130.006 9.23389 130.244 9.26831L137.04 10.2516C137.64 10.3383 137.879 11.0714 137.445 11.4922L132.528 16.265C132.355 16.4321 132.277 16.6728 132.317 16.9088L133.478 23.6481C133.581 24.2423 132.954 24.6954 132.418 24.4148L126.34 21.233C126.127 21.1216 125.873 21.1216 125.66 21.233L119.581 24.4148C119.046 24.6954 118.419 24.2423 118.522 23.6481L119.682 16.9088C119.723 16.6728 119.645 16.4321 119.472 16.265L114.555 11.4922C114.121 11.0714 114.36 10.3383 114.96 10.2516L121.756 9.26831C121.994 9.23389 122.199 9.0851 122.306 8.87044L125.345 2.73878Z" fill="#CED2DA"/>
</svg>
