<svg width="140" height="28" viewBox="0 0 140 28" fill="none" xmlns="http://www.w3.org/2000/svg">
<path d="M13.3449 2.73875C13.6129 2.19817 14.3871 2.19817 14.655 2.73875L17.6943 8.87041C17.8007 9.08507 18.0064 9.23386 18.2443 9.26828L25.0404 10.2515C25.6396 10.3382 25.8788 11.0714 25.4452 11.4921L20.5276 16.265C20.3554 16.4321 20.2768 16.6728 20.3175 16.9087L21.4784 23.6481C21.5807 24.2422 20.9544 24.6953 20.4185 24.4148L14.3399 21.2329C14.1271 21.1215 13.8729 21.1215 13.6601 21.2329L7.58146 24.4148C7.04556 24.6953 6.41922 24.2422 6.52157 23.6481L7.68248 16.9087C7.72312 16.6728 7.64456 16.4321 7.47239 16.265L2.55471 11.4921C2.12115 11.0714 2.3604 10.3382 2.95955 10.2515L9.75562 9.26828C9.99355 9.23386 10.1992 9.08507 10.3056 8.87041L13.3449 2.73875Z" fill="#FFB219"/>
<path d="M41.3449 2.73875C41.6129 2.19817 42.3871 2.19817 42.655 2.73875L45.6943 8.87041C45.8007 9.08507 46.0064 9.23386 46.2443 9.26828L53.0404 10.2515C53.6396 10.3382 53.8788 11.0714 53.4452 11.4921L48.5276 16.265C48.3554 16.4321 48.2768 16.6728 48.3175 16.9087L49.4784 23.6481C49.5807 24.2422 48.9544 24.6953 48.4185 24.4148L42.3399 21.2329C42.1271 21.1215 41.8729 21.1215 41.6601 21.2329L35.5815 24.4148C35.0456 24.6953 34.4192 24.2422 34.5216 23.6481L35.6825 16.9087C35.7231 16.6728 35.6446 16.4321 35.4724 16.265L30.5547 11.4921C30.1212 11.0714 30.3604 10.3382 30.9596 10.2515L37.7556 9.26828C37.9936 9.23386 38.1992 9.08507 38.3056 8.87041L41.3449 2.73875Z" fill="#FFB219"/>
<path d="M69.3449 2.73875C69.6129 2.19817 70.3871 2.19817 70.655 2.73875L73.6943 8.87041C73.8007 9.08507 74.0064 9.23386 74.2443 9.26828L81.0404 10.2515C81.6396 10.3382 81.8788 11.0714 81.4452 11.4921L76.5276 16.265C76.3554 16.4321 76.2768 16.6728 76.3175 16.9087L77.4784 23.6481C77.5807 24.2422 76.9544 24.6953 76.4185 24.4148L70.3399 21.2329C70.1271 21.1215 69.8729 21.1215 69.6601 21.2329L63.5815 24.4148C63.0456 24.6953 62.4192 24.2422 62.5216 23.6481L63.6825 16.9087C63.7231 16.6728 63.6446 16.4321 63.4724 16.265L58.5547 11.4921C58.1212 11.0714 58.3604 10.3382 58.9596 10.2515L65.7556 9.26828C65.9936 9.23386 66.1992 9.08507 66.3056 8.87041L69.3449 2.73875Z" fill="#CED2DA"/>
<path d="M97.3449 2.73875C97.6129 2.19817 98.3871 2.19817 98.655 2.73875L101.694 8.87041C101.801 9.08507 102.006 9.23386 102.244 9.26828L109.04 10.2515C109.64 10.3382 109.879 11.0714 109.445 11.4921L104.528 16.265C104.355 16.4321 104.277 16.6728 104.317 16.9087L105.478 23.6481C105.581 24.2422 104.954 24.6953 104.418 24.4148L98.3399 21.2329C98.1271 21.1215 97.8729 21.1215 97.6601 21.2329L91.5815 24.4148C91.0456 24.6953 90.4192 24.2422 90.5216 23.6481L91.6825 16.9087C91.7231 16.6728 91.6446 16.4321 91.4724 16.265L86.5547 11.4921C86.1212 11.0714 86.3604 10.3382 86.9596 10.2515L93.7556 9.26828C93.9936 9.23386 94.1992 9.08507 94.3056 8.87041L97.3449 2.73875Z" fill="#CED2DA"/>
<path d="M125.345 2.73875C125.613 2.19817 126.387 2.19817 126.655 2.73875L129.694 8.87041C129.801 9.08507 130.006 9.23386 130.244 9.26828L137.04 10.2515C137.64 10.3382 137.879 11.0714 137.445 11.4921L132.528 16.265C132.355 16.4321 132.277 16.6728 132.317 16.9087L133.478 23.6481C133.581 24.2422 132.954 24.6953 132.418 24.4148L126.34 21.2329C126.127 21.1215 125.873 21.1215 125.66 21.2329L119.581 24.4148C119.046 24.6953 118.419 24.2422 118.522 23.6481L119.682 16.9087C119.723 16.6728 119.645 16.4321 119.472 16.265L114.555 11.4921C114.121 11.0714 114.36 10.3382 114.96 10.2515L121.756 9.26828C121.994 9.23386 122.199 9.08507 122.306 8.87041L125.345 2.73875Z" fill="#CED2DA"/>
</svg>
