<svg width="140" height="28" viewBox="0 0 140 28" fill="none" xmlns="http://www.w3.org/2000/svg">
<path d="M13.3449 2.73881C13.6129 2.19823 14.3871 2.19823 14.655 2.73881L17.6943 8.87047C17.8007 9.08513 18.0064 9.23392 18.2443 9.26835L25.0404 10.2516C25.6396 10.3383 25.8788 11.0714 25.4452 11.4922L20.5276 16.265C20.3554 16.4321 20.2768 16.6729 20.3175 16.9088L21.4784 23.6481C21.5807 24.2423 20.9544 24.6954 20.4185 24.4149L14.3399 21.233C14.1271 21.1216 13.8729 21.1216 13.6601 21.233L7.58146 24.4149C7.04556 24.6954 6.41922 24.2423 6.52157 23.6481L7.68248 16.9088C7.72312 16.6729 7.64456 16.4321 7.47239 16.265L2.55471 11.4922C2.12115 11.0714 2.3604 10.3383 2.95955 10.2516L9.75562 9.26835C9.99355 9.23392 10.1992 9.08513 10.3056 8.87047L13.3449 2.73881Z" fill="#FFB219"/>
<path d="M41.3449 2.73881C41.6129 2.19823 42.3871 2.19823 42.655 2.73881L45.6943 8.87047C45.8007 9.08513 46.0064 9.23392 46.2443 9.26835L53.0404 10.2516C53.6396 10.3383 53.8788 11.0714 53.4452 11.4922L48.5276 16.265C48.3554 16.4321 48.2768 16.6729 48.3175 16.9088L49.4784 23.6481C49.5807 24.2423 48.9544 24.6954 48.4185 24.4149L42.3399 21.233C42.1271 21.1216 41.8729 21.1216 41.6601 21.233L35.5815 24.4149C35.0456 24.6954 34.4192 24.2423 34.5216 23.6481L35.6825 16.9088C35.7231 16.6729 35.6446 16.4321 35.4724 16.265L30.5547 11.4922C30.1212 11.0714 30.3604 10.3383 30.9596 10.2516L37.7556 9.26835C37.9936 9.23392 38.1992 9.08513 38.3056 8.87047L41.3449 2.73881Z" fill="#CED2DA"/>
<path d="M69.3449 2.73881C69.6129 2.19823 70.3871 2.19823 70.655 2.73881L73.6943 8.87047C73.8007 9.08513 74.0064 9.23392 74.2443 9.26835L81.0404 10.2516C81.6396 10.3383 81.8788 11.0714 81.4452 11.4922L76.5276 16.265C76.3554 16.4321 76.2768 16.6729 76.3175 16.9088L77.4784 23.6481C77.5807 24.2423 76.9544 24.6954 76.4185 24.4149L70.3399 21.233C70.1271 21.1216 69.8729 21.1216 69.6601 21.233L63.5815 24.4149C63.0456 24.6954 62.4192 24.2423 62.5216 23.6481L63.6825 16.9088C63.7231 16.6729 63.6446 16.4321 63.4724 16.265L58.5547 11.4922C58.1212 11.0714 58.3604 10.3383 58.9596 10.2516L65.7556 9.26835C65.9936 9.23392 66.1992 9.08513 66.3056 8.87047L69.3449 2.73881Z" fill="#CED2DA"/>
<path d="M97.3449 2.73881C97.6129 2.19823 98.3871 2.19823 98.655 2.73881L101.694 8.87047C101.801 9.08513 102.006 9.23392 102.244 9.26835L109.04 10.2516C109.64 10.3383 109.879 11.0714 109.445 11.4922L104.528 16.265C104.355 16.4321 104.277 16.6729 104.317 16.9088L105.478 23.6481C105.581 24.2423 104.954 24.6954 104.418 24.4149L98.3399 21.233C98.1271 21.1216 97.8729 21.1216 97.6601 21.233L91.5815 24.4149C91.0456 24.6954 90.4192 24.2423 90.5216 23.6481L91.6825 16.9088C91.7231 16.6729 91.6446 16.4321 91.4724 16.265L86.5547 11.4922C86.1212 11.0714 86.3604 10.3383 86.9596 10.2516L93.7556 9.26835C93.9936 9.23392 94.1992 9.08513 94.3056 8.87047L97.3449 2.73881Z" fill="#CED2DA"/>
<path d="M125.345 2.73881C125.613 2.19823 126.387 2.19823 126.655 2.73881L129.694 8.87047C129.801 9.08513 130.006 9.23392 130.244 9.26835L137.04 10.2516C137.64 10.3383 137.879 11.0714 137.445 11.4922L132.528 16.265C132.355 16.4321 132.277 16.6729 132.317 16.9088L133.478 23.6481C133.581 24.2423 132.954 24.6954 132.418 24.4149L126.34 21.233C126.127 21.1216 125.873 21.1216 125.66 21.233L119.581 24.4149C119.046 24.6954 118.419 24.2423 118.522 23.6481L119.682 16.9088C119.723 16.6729 119.645 16.4321 119.472 16.265L114.555 11.4922C114.121 11.0714 114.36 10.3383 114.96 10.2516L121.756 9.26835C121.994 9.23392 122.199 9.08513 122.306 8.87047L125.345 2.73881Z" fill="#CED2DA"/>
</svg>
